<svg id="visual" viewBox="0 0 900 600" width="900" height="600" xmlns="http://www.w3.org/2000/svg" xmlns:xlink="http://www.w3.org/1999/xlink" version="1.1"><rect x="0" y="0" width="900" height="600" fill="#95bafe"></rect><path d="M0 355L129 414L257 394L386 397L514 410L643 388L771 379L900 388L900 601L771 601L643 601L514 601L386 601L257 601L129 601L0 601Z" fill="#cdffd8"></path><path d="M0 395L129 460L257 419L386 413L514 480L643 395L771 442L900 476L900 601L771 601L643 601L514 601L386 601L257 601L129 601L0 601Z" fill="#9ef4e5"></path><path d="M0 463L129 450L257 506L386 490L514 465L643 480L771 481L900 446L900 601L771 601L643 601L514 601L386 601L257 601L129 601L0 601Z" fill="#78e6f6"></path><path d="M0 506L129 517L257 513L386 517L514 502L643 523L771 505L900 493L900 601L771 601L643 601L514 601L386 601L257 601L129 601L0 601Z" fill="#74d2ff"></path><path d="M0 552L129 548L257 568L386 557L514 572L643 570L771 560L900 558L900 601L771 601L643 601L514 601L386 601L257 601L129 601L0 601Z" fill="#95bafe"></path></svg>